<?xml version="1.0" encoding="UTF-8" standalone="no"?>
<!-- Creator: CorelDRAW -->

<svg
   xmlns:dc="http://purl.org/dc/elements/1.1/"
   xmlns:cc="http://creativecommons.org/ns#"
   xmlns:rdf="http://www.w3.org/1999/02/22-rdf-syntax-ns#"
   xmlns:svg="http://www.w3.org/2000/svg"
   xmlns="http://www.w3.org/2000/svg"
   xmlns:sodipodi="http://sodipodi.sourceforge.net/DTD/sodipodi-0.dtd"
   xmlns:inkscape="http://www.inkscape.org/namespaces/inkscape"
   xml:space="preserve"
   width="400.00043"
   height="400.00043"
   style="fill-rule:evenodd"
   viewBox="0 0 400.2044 400.20442"
   id="svg3154"
   version="1.1"
   inkscape:version="0.48.0 r9654"
   sodipodi:docname="Kockums_Wappen.svg"><metadata
   id="metadata3324"><rdf:RDF><cc:Work
       rdf:about=""><dc:format>image/svg+xml</dc:format><dc:type
         rdf:resource="http://purl.org/dc/dcmitype/StillImage" /></cc:Work></rdf:RDF></metadata><sodipodi:namedview
   pagecolor="#ffffff"
   bordercolor="#666666"
   borderopacity="1"
   objecttolerance="10"
   gridtolerance="10"
   guidetolerance="10"
   inkscape:pageopacity="0"
   inkscape:pageshadow="2"
   inkscape:window-width="1366"
   inkscape:window-height="706"
   id="namedview3322"
   showgrid="false"
   fit-margin-top="0"
   fit-margin-left="0"
   fit-margin-right="0"
   fit-margin-bottom="0"
   inkscape:zoom="1"
   inkscape:cx="412.13922"
   inkscape:cy="245.98209"
   inkscape:window-x="-8"
   inkscape:window-y="-8"
   inkscape:window-maximized="1"
   inkscape:current-layer="g3161"
   showguides="true"
   inkscape:guide-bbox="true" />
 <defs
   id="defs3156">
  <style
   type="text/css"
   id="style3158">
   
    .str0 {stroke:#0093DD;stroke-width:67}
    .fil1 {fill:none}
    .fil4 {fill:#0093DD}
    .fil2 {fill:#6699FF}
    .fil0 {fill:#FEFEFE}
    .fil3 {fill:#FFFFFF}
   
  </style>
 </defs>
 <g
   id="Ebene 1"
   transform="translate(-32.499798,-1529.2958)">
  <g
   id="g3161">
   
   
   
   
   
   
   
   
   
   
   
   
   
   
   
   
   
   
   
   
   
   
   
   
   
   
   
   
   
   
   
   
   
   
   
   
   
   
   
   
   
   
   
   
   
   
   
   
   
   
   
   
   
   
   
   
   
   
   
   
   
   
   
   
   
   
   
   
   
   
   
   
   
   
   
   
   
   
  <g
   id="g6297"><circle
     transform="matrix(0.21096678,0,0,0.21096678,25.643583,1522.4396)"
     d="m 1896,981 c 0,505.3405 -409.6595,915 -915,915 C 475.65945,1896 66,1486.3405 66,981 66,475.65945 475.65945,66 981,66 c 505.3405,0 915,409.65945 915,915 z"
     sodipodi:ry="915"
     sodipodi:rx="915"
     sodipodi:cy="981"
     sodipodi:cx="981"
     style="fill:none;stroke:#001f5a;stroke-width:67.00204468;stroke-miterlimit:4;stroke-opacity:1;stroke-dasharray:none"
     id="circle3163"
     r="915"
     cy="981"
     cx="981"
     class="fil0 str0" /><circle
     transform="matrix(0.21096678,0,0,0.21096678,25.643583,1522.4396)"
     d="m 1550,981 c 0,314.25 -254.75,569 -569,569 -314.25002,0 -569,-254.75 -569,-569 0,-314.25002 254.74998,-569 569,-569 314.25,0 569,254.74998 569,569 z"
     sodipodi:ry="569"
     sodipodi:rx="569"
     sodipodi:cy="981"
     sodipodi:cx="981"
     style="fill:none;stroke:#001f5a;stroke-width:67;stroke-opacity:1"
     id="circle3165"
     r="569"
     cy="981"
     cx="981"
     class="fil1 str0" /><path
     d="m 340.50069,1624.245 4.46949,4.6483 c -1.43022,1.7878 -2.14536,3.3968 -2.14536,5.0058 -0.17877,1.4304 0.53635,3.0393 1.78782,4.6483 1.43023,1.6091 2.68169,2.6818 4.11193,2.8605 1.43025,0.3577 2.68171,0.1788 3.57561,-0.7151 0.53634,-0.3576 0.8939,-1.0726 1.07268,-1.7879 0.17878,-0.715 0,-1.609 -0.35755,-2.6816 -0.35757,-0.8938 -1.07269,-2.5029 -2.32415,-5.1846 -1.43025,-3.2181 -2.32414,-5.8998 -2.14536,-7.8664 0.17877,-2.6817 1.25145,-5.0058 3.21804,-6.6148 1.43024,-1.0727 2.86048,-1.609 4.64829,-1.7878 1.7878,-0.1788 3.39682,0.1788 5.18463,1.0726 1.7878,0.8939 3.39682,2.3242 5.00585,4.2907 2.6817,3.2182 3.93316,6.2574 3.75438,9.1179 0,2.6817 -1.25147,5.1846 -3.57561,7.1512 l -4.4695,-5.0058 c 1.25146,-1.4303 1.7878,-2.6818 1.7878,-3.7544 0,-1.2515 -0.71512,-2.503 -1.7878,-4.112 -1.25147,-1.4303 -2.50293,-2.3241 -3.75439,-2.6817 -0.8939,-0.3576 -1.60902,-0.1787 -2.32414,0.3576 -0.71513,0.5362 -0.8939,1.2514 -0.8939,2.1454 -0.17878,1.0726 0.53634,3.0392 2.14536,6.0785 1.43024,3.0392 2.32414,5.3634 2.68171,7.1511 0.35755,1.7879 0.17877,3.3969 -0.35757,5.0059 -0.53634,1.609 -1.60902,3.0392 -3.21804,4.2908 -1.60902,1.2514 -3.21805,1.9665 -5.18463,2.1453 -1.96658,0.1788 -3.93316,-0.1788 -5.72096,-1.0727 -1.78782,-1.0726 -3.7544,-2.6817 -5.54219,-4.827 -2.50293,-3.3969 -3.93317,-6.4361 -3.7544,-9.4754 0,-2.8604 1.43025,-5.721 4.11196,-8.4027 z m -42.77297,-17.3165 19.12949,-27.1747 8.22389,5.7211 -8.04512,21.99 17.69926,-15.1964 8.22388,5.8997 -18.9507,26.9958 -5.00585,-3.3968 14.83875,-21.4536 -20.38094,17.5204 -5.18463,-3.5755 9.65414,-25.208 -15.01755,21.4536 -5.18462,-3.5756 z m -28.42277,-42.3709 6.43609,1.7877 -4.64829,17.3418 c -0.71512,2.6817 -1.07268,4.4695 -1.07268,5.3634 -0.17878,1.4301 0.17878,2.6817 1.07268,3.7543 0.8939,1.0727 2.14536,1.7879 3.93317,2.3242 1.7878,0.3575 3.39682,0.3575 4.4695,0 1.07268,-0.5363 1.96659,-1.2515 2.50293,-2.3242 0.35756,-1.0726 1.07268,-2.8605 1.60903,-5.3635 l 4.82706,-17.6991 6.43609,1.609 -4.46951,16.8054 c -1.07268,3.9331 -1.96658,6.6148 -2.68171,8.0451 -0.8939,1.609 -1.7878,2.6817 -3.03926,3.5756 -1.25146,0.7152 -2.6817,1.2515 -4.4695,1.609 -1.78781,0.1787 -3.93317,0 -6.4361,-0.7152 -3.03925,-0.8938 -5.3634,-1.7877 -6.61487,-2.8604 -1.43024,-1.2515 -2.50292,-2.503 -3.03927,-3.7543 -0.71511,-1.4304 -0.89389,-2.8606 -0.89389,-4.1121 0,-1.9665 0.53634,-4.6483 1.60902,-8.2238 l 4.46951,-17.1629 z m -46.83713,28.8919 0.71511,-33.2532 6.61487,0.1788 -0.17877,14.66 13.76608,-14.4812 8.93901,0.1788 -12.6934,12.6934 12.87218,20.3809 -8.76022,0 -8.76025,-15.7325 -5.54218,5.3633 -0.17879,10.0117 -6.79364,0 z m -22.87893,-10.0822 6.79365,0.3575 c 0,3.7543 -0.8939,6.7936 -2.6817,9.1177 -1.7878,2.1454 -4.29073,3.7544 -7.86634,4.8271 -4.11194,1.0727 -8.0451,0.5363 -11.62071,-1.609 -3.57561,-2.1454 -5.89975,-5.7209 -7.32999,-10.9055 -1.43025,-5.1847 -1.07268,-9.833 0.89389,-13.4086 1.96659,-3.7543 5.18463,-6.2573 9.65414,-7.33 3.93317,-1.0727 7.32999,-0.715 10.54804,0.8939 1.7878,0.894 3.39683,2.6818 4.82706,5.0058 l -6.07852,3.2181 c -0.71512,-1.609 -1.96659,-2.6817 -3.39683,-3.2181 -1.43024,-0.715 -3.03926,-0.715 -4.82707,-0.3575 -2.32414,0.7151 -3.93317,1.9666 -5.00585,4.1119 -1.07268,2.1454 -1.07268,5.0059 0,8.9392 1.07268,3.933 2.50293,6.6147 4.46951,8.0451 1.96659,1.2513 4.11195,1.6089 6.43609,1.0726 1.60903,-0.5363 3.03927,-1.4303 3.93317,-2.8605 0.8939,-1.4303 1.43024,-3.3969 1.25146,-5.8997 z m -62.92736,27.4944 c -1.78779,-2.8606 -3.03926,-5.3635 -3.5756,-7.8664 -0.35756,-1.7879 -0.35756,-3.5756 0,-5.5422 0.17879,-1.7878 0.89389,-3.3967 1.78781,-4.8271 1.07268,-1.9665 2.86047,-3.7544 5.00583,-5.1847 4.11196,-2.8604 8.04512,-3.7542 12.15707,-3.0392 4.29073,0.7151 7.86632,3.3968 10.90559,7.8664 3.03927,4.2907 4.29072,8.5815 3.75438,12.6933 -0.71511,4.2908 -3.03925,7.6876 -6.97242,10.5482 -4.11195,2.6817 -8.2239,3.7544 -12.33584,3.0392 -4.11195,-0.8938 -7.68755,-3.3968 -10.72682,-7.6875 z m 5.54219,-4.112 c 2.14536,3.0392 4.46951,4.8271 7.15121,5.3634 2.50293,0.7151 4.82707,0.1788 6.97244,-1.2514 2.14536,-1.6091 3.39682,-3.5757 3.75438,-6.2574 0.35756,-2.5029 -0.71512,-5.3634 -2.86048,-8.5814 -2.14537,-3.0393 -4.46952,-4.8271 -6.97244,-5.5423 -2.32414,-0.5363 -4.64828,0 -6.97243,1.6091 -2.32415,1.609 -3.5756,3.5756 -3.93316,6.0785 -0.17878,2.5029 0.71512,5.3635 2.86048,8.5815 z m -21.45033,43.8717 -25.923152,-20.9173 4.290736,-5.1846 11.441936,9.2966 -2.86049,-19.8447 5.5422,-6.9724 2.32414,17.8781 23.95656,2.5029 -5.5422,6.7937 -17.69924,-2.8606 0.89389,7.8663 7.68757,6.2574 -4.11195,5.1846 z"
     style="fill:#001f5a;fill-opacity:1;fill-rule:evenodd"
     id="path3305"
     inkscape:connector-curvature="0" /><path
     d="m 317.34328,1881.4474 -18.37326,-29.3972 5.87945,-3.6746 24.2527,12.1262 -12.31008,-19.6593 5.51198,-3.4909 18.37326,29.5809 -5.87946,3.6746 -23.88522,-11.7588 11.94261,19.1082 -5.51198,3.4909 z m -35.63624,13.9036 -11.89301,-32.7224 24.26603,-8.7824 2.0127,5.515 -17.64806,6.4039 2.74512,7.1698 16.36111,-5.8547 2.01269,5.5151 -16.54482,5.8543 3.29353,9.0079 18.19952,-6.5868 2.01299,5.3313 -24.8178,9.149 z m -41.05364,-28.9689 12.67755,-1.47 c 2.93972,-0.3674 5.14451,-0.3674 6.61437,-0.1837 2.20479,0.3675 4.04212,1.1024 5.69571,2.5723 1.46987,1.2861 2.93973,3.1234 3.85839,5.1445 1.10239,2.021 1.83732,4.7771 2.20479,8.0842 0.36746,2.7559 0.18373,5.3282 -0.18374,7.3493 -0.5512,2.5722 -1.46986,4.777 -2.93971,6.6144 -1.1024,1.286 -2.57226,2.3884 -4.59332,3.3071 -1.46987,0.735 -3.49092,1.1025 -6.06318,1.4699 l -13.04501,1.6536 -4.22585,-34.5416 z m 7.71676,4.9606 2.75601,22.9666 5.1445,-0.7349 c 2.02106,-0.1838 3.30719,-0.5512 4.22585,-0.7349 1.10239,-0.5512 2.02105,-1.1025 2.57226,-1.8374 0.73492,-0.7349 1.1024,-2.0211 1.46986,-3.4909 0.18374,-1.6536 0.18374,-3.8584 -0.18374,-6.4307 -0.18372,-2.7559 -0.73492,-4.777 -1.28612,-6.063 -0.73494,-1.47 -1.46987,-2.3886 -2.38853,-3.1236 -1.10239,-0.7348 -2.20479,-1.1023 -3.49092,-1.286 -1.10239,0 -2.93972,0 -5.6957,0.3674 l -3.12347,0.3674 z m -39.11606,30.4129 1.11268,-34.7187 25.67263,0.8616 -0.1153,5.9041 -18.83883,-0.631 -0.16282,7.7499 17.35941,0.5563 -0.12889,5.7209 -17.52907,-0.3595 -0.22385,9.4126 19.3885,0.5902 -0.12889,5.721 -26.40557,-0.8074 z m -48.90476,-15.3979 4.04212,-35.4604 6.7981,2.3886 -3.30718,24.2527 14.14741,-20.2106 7.90048,2.9397 -2.57223,24.8039 13.22873,-20.9455 6.61437,2.3885 -19.8431,29.7647 -6.98186,-2.5724 2.38853,-26.8248 -15.2498,22.0478 -7.16557,-2.5722 z m -34.03342,-33.0011 6.06318,3.3072 c -0.91867,2.0211 -1.10241,3.8584 -0.73494,5.512 0.36746,1.6536 1.46986,2.9397 3.30718,4.2258 1.83734,1.2862 3.49092,1.8374 4.96078,1.6536 1.65361,-0.1837 2.75599,-0.7349 3.30719,-1.8373 0.5512,-0.7349 0.73493,-1.4698 0.73493,-2.2047 -0.18373,-0.735 -0.5512,-1.6536 -1.28613,-2.5724 -0.55119,-0.7348 -1.83732,-2.2048 -3.85839,-4.4096 -2.57224,-2.9396 -4.0421,-5.3282 -4.59331,-7.3492 -0.73492,-2.7561 -0.36746,-5.3283 1.28613,-7.533 0.91866,-1.4699 2.2048,-2.5723 4.04212,-3.3071 1.65359,-0.7351 3.49092,-0.9187 5.51198,-0.5513 2.02106,0.5513 4.04212,1.4699 6.24691,2.9397 3.67465,2.3885 5.87943,4.9607 6.61437,7.9004 0.73493,2.7561 0.36746,5.5121 -1.46986,8.2681 l -5.87945,-3.6747 c 0.73494,-1.6536 0.91867,-3.1235 0.55121,-4.2259 -0.36747,-1.2861 -1.46987,-2.3885 -3.12346,-3.4909 -1.65359,-1.1024 -3.12345,-1.6536 -4.59332,-1.6536 -0.91865,0 -1.65359,0.3675 -2.20479,1.1025 -0.36746,0.7348 -0.55119,1.4697 -0.18373,2.3884 0.18373,1.1024 1.65359,2.9398 4.04212,5.512 2.38852,2.5723 3.85838,4.5933 4.77705,6.247 0.91866,1.6536 1.28613,3.3072 1.28613,5.1445 -0.18374,1.6535 -0.73494,3.4909 -2.02106,5.3282 -1.1024,1.6536 -2.57226,2.9397 -4.40959,3.6747 -2.02106,0.9186 -4.04211,1.1024 -6.06318,0.7349 -2.20479,-0.5512 -4.59331,-1.6536 -6.98183,-3.3072 -3.67465,-2.3885 -5.87945,-5.1445 -6.79811,-8.0842 -0.73492,-3.1235 -0.18373,-6.2469 1.46987,-9.7379 z"
     style="fill:#001f5a;fill-opacity:1;fill-rule:evenodd"
     id="path3317"
     inkscape:connector-curvature="0" /><path
     inkscape:connector-curvature="0"
     d="m 211.05662,1685.0706 c -7.8313,11.8984 8.72998,5.7945 10.10603,0.4903 -4.91464,-1.655 -8.18978,-2.0509 -10.10603,-0.4903 z m -12.70515,30.476 c -8.7972,-7.8459 -31.51262,4.3021 -30.7374,4.4397 -6.50006,-7.1551 -10.5752,-32.8719 29.68812,-37.7595 l 6.6346,12.8529 c 17.56795,0.8223 18.36006,-5.2189 19.8365,-9.7518 2.25493,-1.1777 5.24797,-0.1145 8.34541,-1.8021 -10.73596,-1.1239 -20.38275,-2.6531 -22.37159,-1.2774 -2.5188,1.7424 -4.81515,10.9279 -4.98755,10.5475 l -6.99349,-16.0497 70.18399,0 c 0.41926,3.9895 -6.43211,9.1871 -7.97124,12.3144 24.80917,-8.8366 44.58645,-30.7577 40.29349,-28.2719 5.63564,16.2142 -6.40638,21.3404 -7.30737,27.8994 -3.93715,-1.1801 27.88491,10.9991 33.20579,3.9961 -0.28901,3.7647 -8.3173,20.7316 -28.00351,9.6948 -8.70568,-4.8807 13.86642,8.6133 9.36408,16.8298 0.80916,7.862 20.03688,4.6484 20.15634,4.1772 0.62625,-2.47 1.87369,16.0327 -16.27886,18.22 -5.96173,0.7183 8.33614,24.8668 14.67731,27.09 0.52264,3.2991 -12.52448,8.9761 -18.38674,4.4949 -4.39753,-3.3616 4.21312,24.5937 2.19699,25.6178 -1.42816,0.7255 -3.34759,5.8675 -13.78393,-0.017 -1.46133,-0.824 -7.34258,11.5563 -3.34961,16.1553 -7.49001,0.6631 -9.18166,-4.7351 -13.55578,-6.9249 -3.07222,-1.5381 -1.34356,18.7717 -1.52017,16.3327 -4.14209,0.2764 -14.45143,-8.4976 -12.90671,-12.9121 -1.45512,3.1526 -6.87251,14.2791 -10.51647,13.9567 -5.08559,-0.45 -1.96365,-15.7102 -2.53408,-14.2604 -1.19077,3.0265 -3.06866,21.1829 -7.51339,19.6092 -14.51373,-5.1388 -1.69983,-21.0643 -1.55573,-21.5413 0.61637,-2.0401 -11.38779,5.2776 -17.29878,16.5274 -1.34502,2.5598 -3.33558,-8.3429 -4.31716,-7.5706 -12.48189,9.8211 -40.23381,-1.223 -31.95811,-4.4943 23.77185,-9.3968 13.06008,-22.5774 -5.35467,-4.5134 -1.39645,1.3698 5.42335,-19.5578 2.17856,-20.1885 -4.59063,-0.8923 -11.79482,13.3958 -13.19964,9.7858 -8.23027,-21.1494 38.10271,-29.9877 37.80561,-29.7644 -9.328,7.0102 -3.79439,-18.2518 1.8755,-10.189 47.90464,13.1647 23.98353,-24.2004 -11.25111,-10.6082 -6.95672,1.9295 -22.2527,-8.0884 -19.15184,-8.6209 12.00714,0.024 25.08778,-5.7647 37.66514,-4.3451 21.72686,2.4521 41.97441,11.3166 29.53724,8.7516 -0.2259,6.1381 -4.53655,-23.9141 -59.92447,-8.7111 -38.70508,10.6238 -52.81895,-1.1964 -52.00892,-12.0862 0.23643,-3.1784 8.42034,5.1979 27.65201,6.9669 66.50019,-11.3075 76.65081,0.27 82.53995,3.3737 -15.96696,-28.2572 -36.6163,-7.8021 -49.09831,-17.974 z m -4.16597,-45.4895 c -8.35167,-13.2729 -19.47341,-31.4962 -20.00058,-32.7715 -0.52565,-1.2715 -0.28042,-1.5048 1.58191,-1.5048 3.27011,0 8.12462,1.3398 10.45111,2.8845 1.74517,1.1586 2.05075,2.0417 2.05075,5.9265 l 0,4.5651 c 3.98512,-2.5208 12.24877,-4.8395 15.34578,2.7225 1.85637,3.5827 -1.63398,7.5684 -7.83964,8.952 -2.72131,0.6067 -1.92993,1.3799 3.46533,3.3861 5.11256,1.9011 12.74876,2.2309 17.54027,0.7575 7.27628,-2.2375 11.72692,-7.1238 6.48851,-7.1238 -3.71268,0 -8.29897,-1.9208 -9.4484,-3.957 -2.20123,-3.8994 1.37639,-13.5766 8.19822,-14.4224 3.91696,-0.4856 4.08117,-0.6894 2.70097,-3.3532 -1.25157,-2.4155 1.00834,-5.806 4.89324,-7.3413 2.69956,-1.0668 3.21047,-1.0807 5.65068,-0.1547 4.98959,1.8933 6.17774,3.4184 5.51572,7.0804 l -0.5937,3.2841 3.34081,0.4599 c 11.82442,1.6278 12.12443,17.0616 0.38849,18.2167 -2.05629,0.2024 -3.97678,0.6506 -4.26773,0.996 -0.74417,0.8835 3.04763,3.6915 7.69164,5.6957 3.44092,1.4852 4.68443,1.6556 10.02581,1.3743 5.68508,-0.2995 13.85547,-2.4912 13.83789,-3.7121 -0.003,-0.2684 -1.64215,-1.1732 -3.64065,-2.0106 -4.8915,-2.0498 -6.7364,-4.2233 -6.00678,-7.077 2.80748,-8.5737 7.69171,-6.7969 16.03457,-3.8236 l 0,-4.2675 c 0,-5.6198 0.44534,-6.2841 5.22005,-7.7859 4.95758,-1.5594 8.45153,-1.6602 8.45153,-0.2441 0,0.9861 -5.51101,10.3057 -16.89205,28.5663 l -5.31475,8.5273 c -24.14974,0 -48.29949,0 -72.44923,0 l -2.41977,-3.8456 z"
     style="color:#000000;fill:#001f5a;fill-opacity:1;fill-rule:nonzero;stroke:none;stroke-width:0.85841846;marker:none;visibility:visible;display:inline;overflow:visible;enable-background:accumulate"
     id="path4111"
     sodipodi:nodetypes="cccccccccccccccccsccccscccccccsscscscssccccscsscccccscscccsssscsccscsscccccccscsscccc" /></g></g>
 </g>
 
</svg>