<svg xmlns="http://www.w3.org/2000/svg" viewBox="0 0 1024 1024"><defs><style>.a{fill:none;}</style></defs><rect class="a" width="1024" height="1024"/><path d="M190.1,471.5H150.6c-19.8,14-32.2,23.2-47.2,34v-34H70.8v81h32.6v-25l13.3-8.4,36.4,33.4h39.8l-53.2-46.4Z"/><path d="M248.7,469.7c-40.4,0-62.9,19.9-62.9,42.2s22,42.4,61.4,42.4c42.7,0,63.5-20,63.5-42.5S289,469.7,248.7,469.7ZM249,537c-19.8,0-28.8-10.9-28.8-25.4s7.9-24.7,27.7-24.7S276.3,498,276.3,512C276.3,524.1,269.5,537,249,537Z"/><path d="M382.2,486.8c17.5,0,22.6,7.1,24.3,11.1h33c-3-14-20.8-28.2-57-28.2-41.8,0-62.7,20.3-62.7,42.3s19.9,42.3,61.1,42.3c36.1,0,53.3-13.1,58.4-28.5H406.6c-3.6,7.2-9.9,11.4-24.3,11.4-20.2,0-28.1-12.2-28.1-25.9S363.4,486.8,382.2,486.8Z"/><path d="M569.8,471.5H530.3c-19.8,14-32.2,23.2-47.2,34v-34H450.5v81h32.6v-25l13.3-8.4,36.4,33.4h39.8l-53.3-46.4Z"/><path d="M648.6,517.7c0,14.7-8.2,19.1-21.3,19.1s-22.9-4.2-22.9-19.1V471.5H571.7v46.9c0,24.8,20.1,35.9,54.8,35.9s54.8-12.1,54.8-36.1V471.5H648.6Z"/><path d="M768.9,525.9h-.2c-3.2-12.7-11.2-32.4-20.2-54.4h-47v81h29.2V524.7c0-13.9-1.2-29.4-1.9-38.8h.2c5.7,16.1,14.5,39.8,23.9,66.6h27.9c12-29.5,20.1-51,25.6-66.6h.2c-.7,9.3-.9,24.3-.9,37.6v29h31.6v-81h-47C781.2,493.2,773.4,512.1,768.9,525.9Z"/><path d="M908.9,501c-19-2.5-23.7-4.3-23.7-8.4s5.3-6.8,16.7-6.8c15.9,0,19.3,4.6,20.7,8.2h32.2c-1.4-10.6-14-24.2-52.4-24.2-28.6,0-50.3,8.8-50.3,25.1,0,10.8,6.5,20.5,47.3,25.6,21.9,2.7,26.3,5.4,26.3,10.1s-4.2,7.6-19.2,7.6-23.2-4.1-26-10.1H847.9c3.3,14.6,19.6,26.1,56.3,26.1,38.4,0,55-11.4,55-26.1C959.2,516.1,951.8,506.6,908.9,501Z"/></svg>